<?xml version="1.0" standalone="no"?>
<!DOCTYPE svg PUBLIC "-//W3C//DTD SVG 20010904//EN"
 "http://www.w3.org/TR/2001/REC-SVG-20010904/DTD/svg10.dtd">
<svg version="1.0" xmlns="http://www.w3.org/2000/svg"
 width="96.000000pt" height="96.000000pt" viewBox="0 0 96.000000 96.000000"
 preserveAspectRatio="xMidYMid meet">
<metadata>
Created by potrace 1.14, written by Peter Selinger 2001-2017
</metadata>
<g transform="translate(0.000000,96.000000) scale(0.100000,-0.100000)"
fill="#000000" stroke="none">
<path d="M360 828 c-14 -8 -40 -42 -60 -81 -19 -38 -46 -81 -60 -97 -25 -28
-112 -80 -135 -80 -6 0 -22 -12 -36 -26 -19 -20 -24 -36 -24 -76 0 -45 4 -53
35 -79 19 -16 41 -29 50 -29 21 0 103 -58 129 -91 11 -14 31 -50 44 -80 29
-66 45 -80 100 -86 55 -6 90 20 123 96 32 73 82 123 155 156 32 14 67 37 79
52 40 51 16 141 -44 163 -95 35 -148 83 -186 165 -16 33 -37 68 -48 78 -26 24
-90 31 -122 15z m81 -128 c10 -6 30 -32 43 -58 28 -55 45 -72 104 -101 82 -41
80 -102 -5 -145 -56 -28 -73 -45 -102 -103 -25 -51 -48 -65 -87 -54 -20 5 -35
20 -49 47 -34 66 -50 84 -104 109 -86 42 -90 107 -8 145 53 25 89 61 114 115
11 25 27 42 43 46 14 4 26 7 28 8 2 1 12 -4 23 -9z"/>
</g>
</svg>
